{
	"asset":{
		"generator":"Khronos glTF Blender I/O v4.4.56",
		"version":"2.0"
	},
	"extensionsUsed":[
		"KHR_materials_emissive_strength",
		"KHR_materials_specular",
		"KHR_materials_ior"
	],
	"scene":0,
	"scenes":[
		{
			"name":"Scene",
			"nodes":[
				0
			]
		}
	],
	"nodes":[
		{
			"mesh":0,
			"name":"Plane",
			"rotation":[
				0.5,
				0.5,
				-0.5,
				0.5000000596046448
			],
			"scale":[
				1.6468870639801025,
				1.658087968826294,
				1
			]
		}
	],
	"materials":[
		{
			"doubleSided":true,
			"emissiveFactor":[
				1,
				1,
				1
			],
			"emissiveTexture":{
				"index":0
			},
			"extensions":{
				"KHR_materials_emissive_strength":{
					"emissiveStrength":20
				},
				"KHR_materials_specular":{
					"specularFactor":0.2824423611164093
				},
				"KHR_materials_ior":{
					"ior":1.4500000476837158
				}
			},
			"name":"ImphenziaPixPal",
			"pbrMetallicRoughness":{
				"baseColorTexture":{
					"index":1
				},
				"metallicRoughnessTexture":{
					"index":2
				}
			}
		}
	],
	"meshes":[
		{
			"name":"Cylinder",
			"primitives":[
				{
					"attributes":{
						"POSITION":0,
						"NORMAL":1,
						"TEXCOORD_0":2
					},
					"indices":3,
					"material":0
				}
			]
		}
	],
	"textures":[
		{
			"sampler":0,
			"source":0
		},
		{
			"sampler":0,
			"source":1
		},
		{
			"sampler":0,
			"source":2
		}
	],
	"images":[
		{
			"mimeType":"image/png",
			"name":"ImphenziaPixel-Emission",
			"uri":"ImphenziaPixel-Emission.png"
		},
		{
			"mimeType":"image/png",
			"name":"ImphenziaPixel-BaseColor",
			"uri":"ImphenziaPixel-BaseColor.png"
		},
		{
			"mimeType":"image/png",
			"name":"ImphenziaPixel-Attributes",
			"uri":"ImphenziaPixel-Attributes.png"
		}
	],
	"accessors":[
		{
			"bufferView":0,
			"componentType":5126,
			"count":1058,
			"max":[
				10.665079116821289,
				9.742097854614258,
				3.7728826999664307
			],
			"min":[
				-12.719950675964355,
				-9.742097854614258,
				-5.548602104187012
			],
			"type":"VEC3"
		},
		{
			"bufferView":1,
			"componentType":5126,
			"count":1058,
			"type":"VEC3"
		},
		{
			"bufferView":2,
			"componentType":5126,
			"count":1058,
			"type":"VEC2"
		},
		{
			"bufferView":3,
			"componentType":5123,
			"count":2076,
			"type":"SCALAR"
		}
	],
	"bufferViews":[
		{
			"buffer":0,
			"byteLength":12696,
			"byteOffset":0,
			"target":34962
		},
		{
			"buffer":0,
			"byteLength":12696,
			"byteOffset":12696,
			"target":34962
		},
		{
			"buffer":0,
			"byteLength":8464,
			"byteOffset":25392,
			"target":34962
		},
		{
			"buffer":0,
			"byteLength":4152,
			"byteOffset":33856,
			"target":34963
		}
	],
	"samplers":[
		{
			"magFilter":9728,
			"minFilter":9984
		}
	],
	"buffers":[
		{
			"byteLength":38008,
			"uri":"Aeroplane.bin"
		}
	]
}
