{
	"asset":{
		"generator":"Khronos glTF Blender I/O v4.4.56",
		"version":"2.0"
	},
	"extensionsUsed":[
		"KHR_materials_emissive_strength",
		"KHR_materials_specular",
		"KHR_materials_ior"
	],
	"scene":0,
	"scenes":[
		{
			"name":"Scene",
			"nodes":[
				0
			]
		}
	],
	"nodes":[
		{
			"mesh":0,
			"name":"Icosphere.006",
			"rotation":[
				-0.11499673873186111,
				0.006909001152962446,
				-0.30921682715415955,
				0.9439879059791565
			]
		}
	],
	"materials":[
		{
			"doubleSided":true,
			"emissiveFactor":[
				1,
				1,
				1
			],
			"emissiveTexture":{
				"index":0
			},
			"extensions":{
				"KHR_materials_emissive_strength":{
					"emissiveStrength":20
				},
				"KHR_materials_specular":{
					"specularFactor":0.2824423611164093
				},
				"KHR_materials_ior":{
					"ior":1.4500000476837158
				}
			},
			"name":"ImphenziaPixPal",
			"pbrMetallicRoughness":{
				"baseColorTexture":{
					"index":1
				},
				"metallicRoughnessTexture":{
					"index":2
				}
			}
		}
	],
	"meshes":[
		{
			"name":"Icosphere.006",
			"primitives":[
				{
					"attributes":{
						"POSITION":0,
						"NORMAL":1,
						"TEXCOORD_0":2,
						"TANGENT":3
					},
					"indices":4,
					"material":0
				}
			]
		}
	],
	"textures":[
		{
			"sampler":0,
			"source":0
		},
		{
			"sampler":0,
			"source":1
		},
		{
			"sampler":0,
			"source":2
		}
	],
	"images":[
		{
			"mimeType":"image/png",
			"name":"ImphenziaPixel-Emission",
			"uri":"ImphenziaPixel-Emission.png"
		},
		{
			"mimeType":"image/png",
			"name":"ImphenziaPixel-BaseColor",
			"uri":"ImphenziaPixel-BaseColor.png"
		},
		{
			"mimeType":"image/png",
			"name":"ImphenziaPixel-Attributes",
			"uri":"ImphenziaPixel-Attributes.png"
		}
	],
	"accessors":[
		{
			"bufferView":0,
			"componentType":5126,
			"count":420,
			"max":[
				4.543519496917725,
				4.632297515869141,
				1.6403193473815918
			],
			"min":[
				-4.716239929199219,
				-3.4340076446533203,
				-2.3151865005493164
			],
			"type":"VEC3"
		},
		{
			"bufferView":1,
			"componentType":5126,
			"count":420,
			"type":"VEC3"
		},
		{
			"bufferView":2,
			"componentType":5126,
			"count":420,
			"type":"VEC2"
		},
		{
			"bufferView":3,
			"componentType":5126,
			"count":420,
			"type":"VEC4"
		},
		{
			"bufferView":4,
			"componentType":5123,
			"count":420,
			"type":"SCALAR"
		}
	],
	"bufferViews":[
		{
			"buffer":0,
			"byteLength":5040,
			"byteOffset":0,
			"target":34962
		},
		{
			"buffer":0,
			"byteLength":5040,
			"byteOffset":5040,
			"target":34962
		},
		{
			"buffer":0,
			"byteLength":3360,
			"byteOffset":10080,
			"target":34962
		},
		{
			"buffer":0,
			"byteLength":6720,
			"byteOffset":13440,
			"target":34962
		},
		{
			"buffer":0,
			"byteLength":840,
			"byteOffset":20160,
			"target":34963
		}
	],
	"samplers":[
		{
			"magFilter":9728,
			"minFilter":9984
		}
	],
	"buffers":[
		{
			"byteLength":21000,
			"uri":"Cloud.bin"
		}
	]
}
