{
	"asset":{
		"generator":"Khronos glTF Blender I/O v4.4.56",
		"version":"2.0"
	},
	"extensionsUsed":[
		"KHR_materials_emissive_strength",
		"KHR_materials_specular",
		"KHR_materials_ior"
	],
	"scene":0,
	"scenes":[
		{
			"name":"Scene",
			"nodes":[
				0
			]
		}
	],
	"nodes":[
		{
			"mesh":0,
			"name":"Floor",
			"scale":[
				10,
				1,
				10
			]
		}
	],
	"materials":[
		{
			"doubleSided":true,
			"emissiveFactor":[
				1,
				1,
				1
			],
			"emissiveTexture":{
				"index":0
			},
			"extensions":{
				"KHR_materials_emissive_strength":{
					"emissiveStrength":20
				},
				"KHR_materials_specular":{
					"specularFactor":0.2824423611164093
				},
				"KHR_materials_ior":{
					"ior":1.4500000476837158
				}
			},
			"name":"ImphenziaPixPal",
			"pbrMetallicRoughness":{
				"baseColorTexture":{
					"index":1
				},
				"metallicRoughnessTexture":{
					"index":2
				}
			}
		}
	],
	"meshes":[
		{
			"name":"Cube.001",
			"primitives":[
				{
					"attributes":{
						"POSITION":0,
						"NORMAL":1,
						"TEXCOORD_0":2,
						"TANGENT":3,
						"COLOR_0":4,
						"COLOR_1":5
					},
					"indices":6,
					"material":0
				}
			]
		}
	],
	"textures":[
		{
			"sampler":0,
			"source":0
		},
		{
			"sampler":0,
			"source":1
		},
		{
			"sampler":0,
			"source":2
		}
	],
	"images":[
		{
			"mimeType":"image/png",
			"name":"ImphenziaPixel-Emission",
			"uri":"ImphenziaPixel-Emission.png"
		},
		{
			"mimeType":"image/png",
			"name":"ImphenziaPixel-BaseColor",
			"uri":"ImphenziaPixel-BaseColor.png"
		},
		{
			"mimeType":"image/png",
			"name":"ImphenziaPixel-Attributes",
			"uri":"ImphenziaPixel-Attributes.png"
		}
	],
	"accessors":[
		{
			"bufferView":0,
			"componentType":5126,
			"count":1865,
			"max":[
				1.472756028175354,
				45.40584182739258,
				1.472756028175354
			],
			"min":[
				-1.472756028175354,
				-111.8885269165039,
				-1.472756028175354
			],
			"type":"VEC3"
		},
		{
			"bufferView":1,
			"componentType":5126,
			"count":1865,
			"type":"VEC3"
		},
		{
			"bufferView":2,
			"componentType":5126,
			"count":1865,
			"type":"VEC2"
		},
		{
			"bufferView":3,
			"componentType":5126,
			"count":1865,
			"type":"VEC4"
		},
		{
			"bufferView":4,
			"componentType":5121,
			"count":1865,
			"normalized":true,
			"type":"VEC4"
		},
		{
			"bufferView":5,
			"componentType":5123,
			"count":1865,
			"normalized":true,
			"type":"VEC4"
		},
		{
			"bufferView":6,
			"componentType":5123,
			"count":3552,
			"type":"SCALAR"
		}
	],
	"bufferViews":[
		{
			"buffer":0,
			"byteLength":22380,
			"byteOffset":0,
			"target":34962
		},
		{
			"buffer":0,
			"byteLength":22380,
			"byteOffset":22380,
			"target":34962
		},
		{
			"buffer":0,
			"byteLength":14920,
			"byteOffset":44760,
			"target":34962
		},
		{
			"buffer":0,
			"byteLength":29840,
			"byteOffset":59680,
			"target":34962
		},
		{
			"buffer":0,
			"byteLength":7460,
			"byteOffset":89520,
			"target":34962
		},
		{
			"buffer":0,
			"byteLength":14920,
			"byteOffset":96980,
			"target":34962
		},
		{
			"buffer":0,
			"byteLength":7104,
			"byteOffset":111900,
			"target":34963
		}
	],
	"samplers":[
		{
			"magFilter":9728,
			"minFilter":9984
		}
	],
	"buffers":[
		{
			"byteLength":119004,
			"uri":"Floor.bin"
		}
	]
}
